<svg version="1.1" id="Layer_1" xmlns="http://www.w3.org/2000/svg" xmlns:xlink="http://www.w3.org/1999/xlink" x="0px" y="0px"
	 width="100%" viewBox="0 0 923 1250" enable-background="new 0 0 923 1250" xml:space="preserve">
<path fill="#FFFFFF" opacity="1.000000" stroke="none" 
	d="
M449.000000,1251.000000 
	C299.703430,1251.000000 150.406876,1251.000000 1.000000,1251.000000 
	C1.000000,837.305298 1.000000,423.610596 1.365195,9.512714 
	C4.242751,9.912625 6.703436,11.006467 9.277231,11.463936 
	C16.787828,12.798880 21.076059,17.218887 22.297899,24.604321 
	C22.810951,27.705463 23.088326,30.882496 23.091930,34.025463 
	C23.141993,77.681305 23.131338,121.337212 23.111664,164.993103 
	C23.110540,167.487198 23.051121,169.998413 22.762928,172.471832 
	C22.073034,178.392929 19.285105,182.791306 13.382255,184.822403 
	C11.814084,185.361969 10.150753,185.881271 8.833243,186.829620 
	C7.098118,188.078583 5.661361,189.742065 4.096321,191.227325 
	C6.052451,192.024338 8.014780,193.522232 9.963704,193.504990 
	C22.945221,193.390137 35.924828,192.648117 48.903236,192.688873 
	C68.548790,192.750595 88.192848,193.284058 107.837547,193.616852 
	C114.228783,193.725128 120.296524,192.375473 124.709175,187.565430 
	C129.183945,182.687668 133.515839,177.530182 136.967880,171.915756 
	C139.223587,168.247055 140.004776,163.593536 141.006470,159.278992 
	C141.312393,157.961349 140.157379,156.304504 139.793091,155.178940 
	C132.443665,160.924393 126.244873,167.251938 118.805695,171.299988 
	C98.832870,182.168274 76.910690,183.550354 54.738167,181.763458 
	C47.680355,181.194656 45.349789,178.011108 44.783264,170.922104 
	C44.716980,170.092712 44.628170,169.261429 44.627762,168.431000 
	C44.618061,148.769180 44.607754,129.107361 44.629280,109.445572 
	C44.632854,106.181465 44.640228,102.857864 49.346947,102.872467 
	C63.342854,102.915894 77.341278,102.776756 91.333771,103.008148 
	C97.595551,103.111702 102.039078,106.433434 103.996574,112.502693 
	C104.961990,115.496017 105.116753,118.788269 106.334190,121.649132 
	C107.095078,123.437134 109.152893,124.673218 110.628738,126.156967 
	C111.486931,124.487701 113.067596,122.828110 113.090073,121.147659 
	C113.286079,106.493660 113.331863,91.833755 113.084625,77.181305 
	C113.040009,74.537140 111.450287,71.919052 110.573906,69.288925 
	C109.112045,71.462746 106.980225,73.448608 106.308220,75.844009 
	C103.844238,84.626999 98.197868,89.773094 89.302002,90.189293 
	C76.006721,90.811302 62.673035,90.635162 49.355217,90.737953 
	C45.650467,90.766548 44.617188,88.378471 44.631569,85.128952 
	C44.721512,64.805077 44.704567,44.480225 44.915375,24.157694 
	C44.981373,17.795055 46.502083,15.938847 52.855789,15.734418 
	C65.489861,15.327922 78.148750,15.319828 90.787140,15.603698 
	C95.883774,15.718171 101.062164,16.611250 106.011002,17.892784 
	C114.252480,20.026970 116.456436,23.209503 116.997948,31.707767 
	C117.155640,34.182652 117.281891,36.727642 117.988220,39.069916 
	C118.326935,40.193119 119.895363,41.439384 121.075569,41.640625 
	C121.857346,41.773930 123.223000,40.312824 123.812592,39.273518 
	C124.526512,38.015053 124.934402,36.469589 125.063728,35.011856 
	C125.738968,27.400434 126.542572,19.786333 126.804672,12.156095 
	C127.094711,3.712204 126.632576,3.769738 118.159607,3.807496 
	C90.209061,3.932052 62.256916,3.721520 34.306660,3.873353 
	C23.202726,3.933672 12.102120,4.606195 1.000000,5.000000 
	C1.000000,3.667802 1.000000,2.335604 1.000000,1.001703 
	C162.361374,1.000000 323.722748,1.000000 485.389984,1.369621 
	C460.114441,5.891195 438.246033,16.905771 421.779022,37.267506 
	C402.232635,61.436939 396.995392,89.369537 401.541077,119.499367 
	C405.245239,144.051285 415.485962,165.251221 435.270508,180.961456 
	C467.356415,206.439743 521.534058,207.916962 557.862732,184.154938 
	C587.580444,164.717102 599.999756,135.879837 600.949951,101.436165 
	C602.244995,54.488728 574.157593,16.442823 529.759827,4.474659 
	C524.882141,3.159783 519.921936,2.150836 515.000000,1.000001 
	C650.000000,1.000000 785.000000,0.993269 919.999939,1.102952 
	C921.252625,1.103970 924.314819,-0.962960 923.616211,3.532855 
	C921.610718,3.957530 919.989075,3.757348 918.367310,3.755864 
	C906.407471,3.744922 894.447571,3.774133 882.487732,3.789344 
	C880.512329,3.791856 878.391968,3.344479 876.607727,3.927976 
	C875.201111,4.387998 873.561523,5.968554 873.256592,7.327589 
	C873.049255,8.251407 874.743591,10.239588 875.985901,10.718616 
	C878.592285,11.723603 881.481262,11.969093 884.218933,12.665263 
	C892.302551,14.720936 894.748291,19.105520 892.156921,27.128201 
	C891.451843,29.311069 890.410034,31.438540 889.209167,33.399418 
	C879.654358,49.001213 870.034058,64.562965 860.412476,80.123764 
	C855.529541,88.020958 853.955078,88.045845 849.031311,80.185539 
	C838.259644,62.989315 827.590881,45.728367 816.777283,28.558672 
	C810.632935,18.802710 811.257324,16.232422 821.039856,10.558327 
	C822.762573,9.559129 823.751404,7.294517 825.079163,5.614279 
	C823.014954,4.956766 820.956299,3.750124 818.885742,3.729520 
	C803.770020,3.579103 788.650330,3.787470 773.536072,3.578929 
	C770.472717,3.536661 767.759705,3.812609 767.570923,7.001777 
	C767.497742,8.237210 770.290466,10.446497 772.084045,10.849910 
	C780.115540,12.656363 785.440491,17.322298 789.701111,24.283224 
	C804.373840,48.255428 819.528931,71.932243 834.227234,95.889099 
	C836.303955,99.273964 837.887634,103.570755 837.956421,107.476151 
	C838.320374,128.127472 838.169373,148.788757 838.106812,169.446304 
	C838.078186,178.898376 834.998352,182.722885 825.960144,185.021881 
	C824.510803,185.390549 822.753357,185.355377 821.677612,186.196548 
	C820.060059,187.461411 818.918640,189.335129 817.574768,190.949982 
	C819.460632,191.799057 821.337402,193.360931 823.233887,193.385361 
	C839.671509,193.597107 856.113342,193.610016 872.552307,193.479538 
	C875.543213,193.455811 880.110291,195.352203 880.945923,190.800293 
	C881.787292,186.217194 876.893921,186.218338 874.020996,185.278137 
	C862.877991,181.631470 859.625671,177.409805 859.618103,165.674469 
	C859.607056,148.515213 860.065125,131.339783 859.449280,114.202675 
	C859.069946,103.647072 861.427368,94.839310 867.528137,85.935844 
	C881.621582,65.368118 894.547058,44.000786 907.982300,22.980829 
	C911.870056,16.898275 916.408081,11.546111 924.000000,10.000000 
	C924.000000,423.566162 924.000000,837.132324 924.000000,1251.000000 
	C766.972107,1251.000000 609.943970,1251.000000 452.484863,1250.637695 
	C464.268158,1244.231812 476.573090,1238.364136 488.681732,1232.115845 
	C557.711792,1196.495117 621.134705,1152.913818 677.352051,1099.094971 
	C757.976807,1021.910522 816.061401,930.409424 852.059204,824.795471 
	C874.847351,757.937561 886.885376,688.950012 892.792419,618.793884 
	C897.531189,562.512512 898.828125,506.112793 897.228455,449.641083 
	C895.866150,401.549103 894.807983,353.448547 893.588196,305.352448 
	C893.459045,300.260498 893.148132,295.173187 892.909180,289.806549 
	C891.051270,289.806549 889.575317,289.808350 888.099304,289.806305 
	C789.787048,289.670074 691.474915,289.459656 593.162598,289.414459 
	C446.680328,289.347137 300.197998,289.396332 153.715683,289.395966 
	C121.886192,289.395905 90.056282,289.328735 58.228043,289.528076 
	C55.779095,289.543427 52.725418,290.823883 51.000916,292.558350 
	C41.021881,302.595062 31.285831,312.878265 21.666550,323.262360 
	C20.273676,324.765991 19.315248,327.238220 19.238848,329.302307 
	C18.783163,341.613373 18.549129,353.935181 18.417212,366.255280 
	C17.739632,429.536041 16.937990,492.808929 20.738125,556.047729 
	C23.976162,609.932495 29.815584,663.472290 40.001545,716.504089 
	C55.038250,794.790527 78.932709,870.089050 115.848579,940.986267 
	C149.815292,1006.219666 193.226959,1064.340088 246.570435,1115.037964 
	C299.724548,1165.555786 359.759949,1206.102051 425.186768,1238.900391 
	C433.146179,1242.890381 441.063263,1246.964844 449.000000,1251.000000 
M379.477844,193.089233 
	C382.141846,193.109619 384.833069,193.359802 387.457733,193.048599 
	C388.678864,192.903793 390.689117,191.703751 390.718475,190.921082 
	C390.770081,189.547653 389.869507,187.810181 388.811646,186.818375 
	C387.811798,185.881027 386.126587,185.594025 384.691650,185.214279 
	C373.121643,182.152466 370.567810,178.842697 369.843719,166.789551 
	C368.377258,142.379318 366.699036,117.981812 365.234680,93.571465 
	C364.019073,73.307785 362.776428,53.041756 361.945862,32.760387 
	C361.422058,19.969599 366.354614,12.184103 377.898468,10.664027 
	C379.426605,10.462806 380.617279,7.698694 381.964264,6.121530 
	C380.111664,5.247668 378.286011,3.701617 376.401428,3.626167 
	C370.780457,3.401126 365.117554,4.100168 359.505768,3.796444 
	C351.524841,3.364493 351.547424,3.125086 347.847412,10.545372 
	C324.931549,56.502380 302.016418,102.459770 279.076569,148.404800 
	C277.922180,150.716843 276.540558,152.915436 274.559448,156.411423 
	C272.093597,152.022766 270.050903,148.874847 268.474792,145.508469 
	C246.920120,99.470093 225.458740,53.387985 203.812042,7.393048 
	C202.998016,5.663440 200.581863,3.638723 198.840149,3.569582 
	C189.398743,3.194789 179.931274,3.267272 170.481613,3.517786 
	C168.928329,3.558963 167.418777,5.248798 165.889008,6.176681 
	C166.964462,7.651804 167.729767,9.886727 169.167740,10.473690 
	C176.306839,13.387770 180.656509,18.836271 182.011475,25.950712 
	C184.023422,36.514622 186.528442,47.340977 186.106140,57.947426 
	C184.656998,94.343269 182.150101,130.700256 179.755539,167.052902 
	C179.157013,176.139359 175.396530,183.325607 165.245712,185.521515 
	C163.589920,185.879700 162.515427,188.925003 161.172241,190.728317 
	C163.050797,191.548843 164.921860,193.057144 166.809128,193.077713 
	C178.601379,193.206192 190.397141,192.974152 202.192001,192.924667 
	C206.020203,192.908600 209.869705,193.339935 213.667343,193.037506 
	C215.112854,192.922379 216.440048,191.321381 217.821167,190.397583 
	C216.843033,188.994583 216.004654,187.456177 214.829956,186.243607 
	C214.208084,185.601669 213.013550,185.485275 212.056824,185.201401 
	C198.325851,181.126938 193.695496,175.391678 193.970001,161.131287 
	C194.168304,150.829651 195.184967,140.537354 196.019501,130.255722 
	C197.796936,108.357338 199.673340,86.466881 201.578186,64.579170 
	C201.734482,62.783276 202.416092,61.033092 202.853622,59.261669 
	C203.303833,59.196823 203.754059,59.131977 204.204285,59.067131 
	C205.286316,60.808594 206.539581,62.467625 207.423828,64.304306 
	C215.928940,81.970230 224.394073,99.655487 232.826950,117.356041 
	C243.546570,139.856400 254.191925,162.392273 264.992859,184.853439 
	C265.768188,186.465759 267.552856,187.592712 268.868256,188.945343 
	C270.130157,187.710083 271.450470,186.527237 272.627838,185.216064 
	C273.165924,184.616821 273.438721,183.772675 273.804321,183.026138 
	C283.597778,163.027664 293.375977,143.021683 303.181305,123.029045 
	C313.131592,102.740913 323.047638,82.435448 333.141693,62.218979 
	C334.568787,59.360870 336.919464,56.963921 338.842651,54.353519 
	C339.455383,54.595085 340.068085,54.836655 340.680817,55.078224 
	C341.162567,57.430656 341.914703,59.763657 342.085419,62.138451 
	C344.531097,96.160759 346.863159,130.191223 349.301971,164.214035 
	C350.265686,177.658615 348.916534,180.011536 337.101715,186.099335 
	C335.378784,186.987091 334.446350,189.409027 333.148132,191.121063 
	C334.967865,191.813721 336.782654,193.090210 338.608154,193.105713 
	C351.904022,193.218674 365.201996,193.077957 379.477844,193.089233 
M627.153259,14.024862 
	C632.837830,16.964369 635.071533,22.013577 635.080872,28.017345 
	C635.154053,75.012947 635.144775,122.008743 635.094849,169.004410 
	C635.088074,175.365433 632.101257,180.154282 626.450439,183.143784 
	C624.397644,184.229782 621.956421,184.745056 620.178589,186.140213 
	C618.476074,187.476257 617.404297,189.616104 616.055298,191.402679 
	C618.070496,192.131699 620.080627,193.477036 622.101746,193.493896 
	C641.209229,193.653275 660.319031,193.636612 679.426880,193.497864 
	C681.114990,193.485611 682.794128,192.250687 684.477478,191.583649 
	C683.234680,190.030472 682.297791,187.767212 680.685181,187.072556 
	C677.367126,185.643265 673.671204,185.110779 670.160461,184.105682 
	C660.749329,181.411331 656.835815,176.966919 656.716553,167.427017 
	C656.472961,147.932007 656.656677,128.431915 656.591553,108.934143 
	C656.580688,105.676704 657.941772,103.770699 661.186890,103.685211 
	C667.159912,103.527878 673.161743,103.895302 679.109009,103.461060 
	C688.039124,102.809029 692.878784,107.495903 697.309387,114.631592 
	C709.942932,134.978683 722.980774,155.086365 736.333252,174.970139 
	C742.301025,183.857010 750.440491,191.238617 761.418457,192.542175 
	C770.534790,193.624649 779.935120,192.392105 789.203491,192.028107 
	C790.490234,191.977585 791.741577,191.025925 794.412476,189.899826 
	C791.567749,188.524139 790.114624,187.307892 788.551819,187.145218 
	C773.152954,185.542252 762.692078,176.685486 754.527710,164.353333 
	C743.413025,147.564880 732.298035,130.776596 721.197571,113.978668 
	C717.391785,108.219513 713.629761,102.431473 709.733398,96.482033 
	C722.160461,90.968475 731.686218,82.970360 737.913025,71.362747 
	C751.903931,45.281712 739.700500,15.204555 711.427917,7.023411 
	C704.160217,4.920389 696.406433,3.678557 688.849487,3.545603 
	C665.251099,3.130421 641.640137,3.434609 618.033997,3.467414 
	C617.706726,3.467869 617.298889,3.458410 617.065308,3.634671 
	C615.502197,4.814300 613.976196,6.043148 612.438171,7.256002 
	C613.731140,8.542747 614.804688,10.384805 616.362793,11.000351 
	C619.580017,12.271320 623.055603,12.888502 627.153259,14.024862 
z"/>
<path fill="#033DD1" opacity="1.000000" stroke="none" 
	d="
M449.375000,1251.000000 
	C441.063263,1246.964844 433.146179,1242.890381 425.186768,1238.900391 
	C359.759949,1206.102051 299.724548,1165.555786 246.570435,1115.037964 
	C193.226959,1064.340088 149.815292,1006.219666 115.848579,940.986267 
	C78.932709,870.089050 55.038250,794.790527 40.001545,716.504089 
	C29.815584,663.472290 23.976162,609.932495 20.738125,556.047729 
	C16.937990,492.808929 17.739632,429.536041 18.417212,366.255280 
	C18.549129,353.935181 18.783163,341.613373 19.238848,329.302307 
	C19.315248,327.238220 20.273676,324.765991 21.666550,323.262360 
	C31.285831,312.878265 41.021881,302.595062 51.000916,292.558350 
	C52.725418,290.823883 55.779095,289.543427 58.228043,289.528076 
	C90.056282,289.328735 121.886192,289.395905 153.715683,289.395966 
	C300.197998,289.396332 446.680328,289.347137 593.162598,289.414459 
	C691.474915,289.459656 789.787048,289.670074 888.099304,289.806305 
	C889.575317,289.808350 891.051270,289.806549 892.909180,289.806549 
	C893.148132,295.173187 893.459045,300.260498 893.588196,305.352448 
	C894.807983,353.448547 895.866150,401.549103 897.228455,449.641083 
	C898.828125,506.112793 897.531189,562.512512 892.792419,618.793884 
	C886.885376,688.950012 874.847351,757.937561 852.059204,824.795471 
	C816.061401,930.409424 757.976807,1021.910522 677.352051,1099.094971 
	C621.134705,1152.913818 557.711792,1196.495117 488.681732,1232.115845 
	C476.573090,1238.364136 464.268158,1244.231812 452.026917,1250.637695 
	C451.250000,1251.000000 450.500000,1251.000000 449.375000,1251.000000 
M312.953217,1137.565063 
	C354.958618,1169.822144 400.197601,1196.714722 448.094940,1219.234619 
	C451.092987,1220.644165 453.434387,1220.870972 456.367401,1219.288208 
	C481.955200,1205.480591 508.217957,1192.807251 533.110046,1177.849609 
	C597.500305,1139.157593 653.510071,1090.591187 700.375305,1031.690308 
	C754.341858,963.864380 791.489929,887.480835 815.996155,804.660828 
	C842.294067,715.785767 852.815186,624.571533 855.675659,532.311279 
	C856.692078,499.530182 856.384644,466.702057 856.337524,433.895905 
	C856.300903,408.412811 855.693176,382.930908 855.414673,357.447662 
	C855.304016,347.324524 855.396545,337.199188 855.396545,326.341522 
	C587.937744,326.341522 321.217743,326.341522 54.197235,326.341522 
	C54.143780,327.459015 54.035599,328.921356 54.009418,330.385101 
	C53.399029,364.514771 52.163979,398.648010 52.346001,432.773590 
	C52.605305,481.387604 53.192051,530.021973 54.958027,578.599731 
	C56.797840,629.208557 63.207993,679.393738 72.852531,729.144409 
	C86.402794,799.042542 107.724068,866.317810 140.191254,929.860535 
	C182.077133,1011.836853 239.551224,1080.861694 312.953217,1137.565063 
z"/>
<path fill="#053ED2" opacity="1.000000" stroke="none" 
	d="
M514.531372,1.000001 
	C519.921936,2.150836 524.882141,3.159783 529.759827,4.474659 
	C574.157593,16.442823 602.244995,54.488728 600.949951,101.436165 
	C599.999756,135.879837 587.580444,164.717102 557.862732,184.154938 
	C521.534058,207.916962 467.356415,206.439743 435.270508,180.961456 
	C415.485962,165.251221 405.245239,144.051285 401.541077,119.499367 
	C396.995392,89.369537 402.232635,61.436939 421.779022,37.267506 
	C438.246033,16.905771 460.114441,5.891195 485.847931,1.369621 
	C495.354218,1.000000 504.708466,1.000000 514.531372,1.000001 
M497.961243,10.469448 
	C470.152527,8.029416 443.958435,22.579361 430.960114,47.654541 
	C419.649841,69.473320 417.994324,92.556343 423.072601,116.100670 
	C429.594910,146.339859 444.807831,170.902771 473.629150,184.495422 
	C511.727417,202.463242 558.259155,189.952454 574.929504,143.388107 
	C583.180786,120.340149 582.903870,96.819191 574.819946,73.917252 
	C562.149414,38.021320 538.602783,14.389732 497.961243,10.469448 
z"/>
<path fill="#0740D2" opacity="1.000000" stroke="none" 
	d="
M1.000000,5.399996 
	C12.102120,4.606195 23.202726,3.933672 34.306660,3.873353 
	C62.256916,3.721520 90.209061,3.932052 118.159607,3.807496 
	C126.632576,3.769738 127.094711,3.712204 126.804672,12.156095 
	C126.542572,19.786333 125.738968,27.400434 125.063728,35.011856 
	C124.934402,36.469589 124.526512,38.015053 123.812592,39.273518 
	C123.223000,40.312824 121.857346,41.773930 121.075569,41.640625 
	C119.895363,41.439384 118.326935,40.193119 117.988220,39.069916 
	C117.281891,36.727642 117.155640,34.182652 116.997948,31.707767 
	C116.456436,23.209503 114.252480,20.026970 106.011002,17.892784 
	C101.062164,16.611250 95.883774,15.718171 90.787140,15.603698 
	C78.148750,15.319828 65.489861,15.327922 52.855789,15.734418 
	C46.502083,15.938847 44.981373,17.795055 44.915375,24.157694 
	C44.704567,44.480225 44.721512,64.805077 44.631569,85.128952 
	C44.617188,88.378471 45.650467,90.766548 49.355217,90.737953 
	C62.673035,90.635162 76.006721,90.811302 89.302002,90.189293 
	C98.197868,89.773094 103.844238,84.626999 106.308220,75.844009 
	C106.980225,73.448608 109.112045,71.462746 110.573906,69.288925 
	C111.450287,71.919052 113.040009,74.537140 113.084625,77.181305 
	C113.331863,91.833755 113.286079,106.493660 113.090073,121.147659 
	C113.067596,122.828110 111.486931,124.487701 110.628738,126.156967 
	C109.152893,124.673218 107.095078,123.437134 106.334190,121.649132 
	C105.116753,118.788269 104.961990,115.496017 103.996574,112.502693 
	C102.039078,106.433434 97.595551,103.111702 91.333771,103.008148 
	C77.341278,102.776756 63.342854,102.915894 49.346947,102.872467 
	C44.640228,102.857864 44.632854,106.181465 44.629280,109.445572 
	C44.607754,129.107361 44.618061,148.769180 44.627762,168.431000 
	C44.628170,169.261429 44.716980,170.092712 44.783264,170.922104 
	C45.349789,178.011108 47.680355,181.194656 54.738167,181.763458 
	C76.910690,183.550354 98.832870,182.168274 118.805695,171.299988 
	C126.244873,167.251938 132.443665,160.924393 139.793091,155.178940 
	C140.157379,156.304504 141.312393,157.961349 141.006470,159.278992 
	C140.004776,163.593536 139.223587,168.247055 136.967880,171.915756 
	C133.515839,177.530182 129.183945,182.687668 124.709175,187.565430 
	C120.296524,192.375473 114.228783,193.725128 107.837547,193.616852 
	C88.192848,193.284058 68.548790,192.750595 48.903236,192.688873 
	C35.924828,192.648117 22.945221,193.390137 9.963704,193.504990 
	C8.014780,193.522232 6.052451,192.024338 4.096321,191.227325 
	C5.661361,189.742065 7.098118,188.078583 8.833243,186.829620 
	C10.150753,185.881271 11.814084,185.361969 13.382255,184.822403 
	C19.285105,182.791306 22.073034,178.392929 22.762928,172.471832 
	C23.051121,169.998413 23.110540,167.487198 23.111664,164.993103 
	C23.131338,121.337212 23.141993,77.681305 23.091930,34.025463 
	C23.088326,30.882496 22.810951,27.705463 22.297899,24.604321 
	C21.076059,17.218887 16.787828,12.798880 9.277231,11.463936 
	C6.703436,11.006467 4.242751,9.912625 1.365195,9.054761 
	C1.000000,7.933331 1.000000,6.866662 1.000000,5.399996 
z"/>
<path fill="#063FD2" opacity="1.000000" stroke="none" 
	d="
M924.000000,9.571538 
	C916.408081,11.546111 911.870056,16.898275 907.982300,22.980829 
	C894.547058,44.000786 881.621582,65.368118 867.528137,85.935844 
	C861.427368,94.839310 859.069946,103.647072 859.449280,114.202675 
	C860.065125,131.339783 859.607056,148.515213 859.618103,165.674469 
	C859.625671,177.409805 862.877991,181.631470 874.020996,185.278137 
	C876.893921,186.218338 881.787292,186.217194 880.945923,190.800293 
	C880.110291,195.352203 875.543213,193.455811 872.552307,193.479538 
	C856.113342,193.610016 839.671509,193.597107 823.233887,193.385361 
	C821.337402,193.360931 819.460632,191.799057 817.574768,190.949982 
	C818.918640,189.335129 820.060059,187.461411 821.677612,186.196548 
	C822.753357,185.355377 824.510803,185.390549 825.960144,185.021881 
	C834.998352,182.722885 838.078186,178.898376 838.106812,169.446304 
	C838.169373,148.788757 838.320374,128.127472 837.956421,107.476151 
	C837.887634,103.570755 836.303955,99.273964 834.227234,95.889099 
	C819.528931,71.932243 804.373840,48.255428 789.701111,24.283224 
	C785.440491,17.322298 780.115540,12.656363 772.084045,10.849910 
	C770.290466,10.446497 767.497742,8.237210 767.570923,7.001777 
	C767.759705,3.812609 770.472717,3.536661 773.536072,3.578929 
	C788.650330,3.787470 803.770020,3.579103 818.885742,3.729520 
	C820.956299,3.750124 823.014954,4.956766 825.079163,5.614279 
	C823.751404,7.294517 822.762573,9.559129 821.039856,10.558327 
	C811.257324,16.232422 810.632935,18.802710 816.777283,28.558672 
	C827.590881,45.728367 838.259644,62.989315 849.031311,80.185539 
	C853.955078,88.045845 855.529541,88.020958 860.412476,80.123764 
	C870.034058,64.562965 879.654358,49.001213 889.209167,33.399418 
	C890.410034,31.438540 891.451843,29.311069 892.156921,27.128201 
	C894.748291,19.105520 892.302551,14.720936 884.218933,12.665263 
	C881.481262,11.969093 878.592285,11.723603 875.985901,10.718616 
	C874.743591,10.239588 873.049255,8.251407 873.256592,7.327589 
	C873.561523,5.968554 875.201111,4.387998 876.607727,3.927976 
	C878.391968,3.344479 880.512329,3.791856 882.487732,3.789344 
	C894.447571,3.774133 906.407471,3.744922 918.367310,3.755864 
	C919.989075,3.757348 921.610718,3.957530 923.616211,4.032855 
	C924.000000,5.714359 924.000000,7.428717 924.000000,9.571538 
z"/>
<path fill="#063FD2" opacity="1.000000" stroke="none" 
	d="
M378.988586,193.053314 
	C365.201996,193.077957 351.904022,193.218674 338.608154,193.105713 
	C336.782654,193.090210 334.967865,191.813721 333.148132,191.121063 
	C334.446350,189.409027 335.378784,186.987091 337.101715,186.099335 
	C348.916534,180.011536 350.265686,177.658615 349.301971,164.214035 
	C346.863159,130.191223 344.531097,96.160759 342.085419,62.138451 
	C341.914703,59.763657 341.162567,57.430656 340.680817,55.078224 
	C340.068085,54.836655 339.455383,54.595085 338.842651,54.353519 
	C336.919464,56.963921 334.568787,59.360870 333.141693,62.218979 
	C323.047638,82.435448 313.131592,102.740913 303.181305,123.029045 
	C293.375977,143.021683 283.597778,163.027664 273.804321,183.026138 
	C273.438721,183.772675 273.165924,184.616821 272.627838,185.216064 
	C271.450470,186.527237 270.130157,187.710083 268.868256,188.945343 
	C267.552856,187.592712 265.768188,186.465759 264.992859,184.853439 
	C254.191925,162.392273 243.546570,139.856400 232.826950,117.356041 
	C224.394073,99.655487 215.928940,81.970230 207.423828,64.304306 
	C206.539581,62.467625 205.286316,60.808594 204.204285,59.067131 
	C203.754059,59.131977 203.303833,59.196823 202.853622,59.261669 
	C202.416092,61.033092 201.734482,62.783276 201.578186,64.579170 
	C199.673340,86.466881 197.796936,108.357338 196.019501,130.255722 
	C195.184967,140.537354 194.168304,150.829651 193.970001,161.131287 
	C193.695496,175.391678 198.325851,181.126938 212.056824,185.201401 
	C213.013550,185.485275 214.208084,185.601669 214.829956,186.243607 
	C216.004654,187.456177 216.843033,188.994583 217.821167,190.397583 
	C216.440048,191.321381 215.112854,192.922379 213.667343,193.037506 
	C209.869705,193.339935 206.020203,192.908600 202.192001,192.924667 
	C190.397141,192.974152 178.601379,193.206192 166.809128,193.077713 
	C164.921860,193.057144 163.050797,191.548843 161.172241,190.728302 
	C162.515427,188.925003 163.589920,185.879700 165.245712,185.521515 
	C175.396530,183.325607 179.157013,176.139359 179.755539,167.052902 
	C182.150101,130.700256 184.656998,94.343269 186.106140,57.947426 
	C186.528442,47.340977 184.023422,36.514622 182.011475,25.950712 
	C180.656509,18.836271 176.306839,13.387770 169.167740,10.473690 
	C167.729767,9.886727 166.964462,7.651804 165.889008,6.176683 
	C167.418777,5.248798 168.928329,3.558963 170.481613,3.517786 
	C179.931274,3.267272 189.398743,3.194789 198.840149,3.569582 
	C200.581863,3.638723 202.998016,5.663440 203.812042,7.393048 
	C225.458740,53.387985 246.920120,99.470093 268.474792,145.508469 
	C270.050903,148.874847 272.093597,152.022766 274.559448,156.411423 
	C276.540558,152.915436 277.922180,150.716843 279.076569,148.404800 
	C302.016418,102.459770 324.931549,56.502380 347.847412,10.545372 
	C351.547424,3.125086 351.524841,3.364493 359.505768,3.796444 
	C365.117554,4.100168 370.780457,3.401126 376.401428,3.626167 
	C378.286011,3.701617 380.111664,5.247668 381.964233,6.121527 
	C380.617279,7.698694 379.426605,10.462806 377.898468,10.664027 
	C366.354614,12.184103 361.422058,19.969599 361.945862,32.760387 
	C362.776428,53.041756 364.019073,73.307785 365.234680,93.571465 
	C366.699036,117.981812 368.377258,142.379318 369.843719,166.789551 
	C370.567810,178.842697 373.121643,182.152466 384.691650,185.214279 
	C386.126587,185.594025 387.811798,185.881027 388.811646,186.818375 
	C389.869507,187.810181 390.770081,189.547653 390.718475,190.921082 
	C390.689117,191.703751 388.678864,192.903793 387.457733,193.048599 
	C384.833069,193.359802 382.141846,193.109619 378.988586,193.053314 
z"/>
<path fill="#063FD2" opacity="1.000000" stroke="none" 
	d="
M626.789062,13.899748 
	C623.055603,12.888502 619.580017,12.271320 616.362793,11.000351 
	C614.804688,10.384805 613.731140,8.542747 612.438171,7.256003 
	C613.976196,6.043148 615.502197,4.814300 617.065308,3.634671 
	C617.298889,3.458410 617.706726,3.467869 618.033997,3.467414 
	C641.640137,3.434609 665.251099,3.130421 688.849487,3.545603 
	C696.406433,3.678557 704.160217,4.920389 711.427917,7.023411 
	C739.700500,15.204555 751.903931,45.281712 737.913025,71.362747 
	C731.686218,82.970360 722.160461,90.968475 709.733398,96.482033 
	C713.629761,102.431473 717.391785,108.219513 721.197571,113.978668 
	C732.298035,130.776596 743.413025,147.564880 754.527710,164.353333 
	C762.692078,176.685486 773.152954,185.542252 788.551819,187.145218 
	C790.114624,187.307892 791.567749,188.524139 794.412476,189.899826 
	C791.741577,191.025925 790.490234,191.977585 789.203491,192.028107 
	C779.935120,192.392105 770.534790,193.624649 761.418457,192.542175 
	C750.440491,191.238617 742.301025,183.857010 736.333252,174.970139 
	C722.980774,155.086365 709.942932,134.978683 697.309387,114.631592 
	C692.878784,107.495903 688.039124,102.809029 679.109009,103.461060 
	C673.161743,103.895302 667.159912,103.527878 661.186890,103.685211 
	C657.941772,103.770699 656.580688,105.676704 656.591553,108.934143 
	C656.656677,128.431915 656.472961,147.932007 656.716553,167.427017 
	C656.835815,176.966919 660.749329,181.411331 670.160461,184.105682 
	C673.671204,185.110779 677.367126,185.643265 680.685181,187.072556 
	C682.297791,187.767212 683.234680,190.030472 684.477478,191.583649 
	C682.794128,192.250687 681.114990,193.485611 679.426880,193.497864 
	C660.319031,193.636612 641.209229,193.653275 622.101746,193.493896 
	C620.080627,193.477036 618.070496,192.131699 616.055298,191.402679 
	C617.404297,189.616104 618.476074,187.476257 620.178589,186.140213 
	C621.956421,184.745056 624.397644,184.229782 626.450439,183.143784 
	C632.101257,180.154282 635.088074,175.365433 635.094849,169.004410 
	C635.144775,122.008743 635.154053,75.012947 635.080872,28.017345 
	C635.071533,22.013577 632.837830,16.964369 626.789062,13.899748 
M656.613892,37.500202 
	C656.613892,53.665703 656.609863,69.831207 656.615845,85.996704 
	C656.618225,92.464531 657.404175,93.647179 663.913330,93.882210 
	C672.564453,94.194565 681.268372,94.407814 689.890198,93.808746 
	C699.815002,93.119133 708.666077,89.417290 715.147827,81.391426 
	C727.768860,65.763855 724.664062,36.266041 708.945435,23.800417 
	C695.337402,13.008604 679.282043,12.078794 662.901306,13.189800 
	C659.139160,13.444964 657.013184,16.165058 656.890930,20.014559 
	C656.716614,25.507278 656.698547,31.004963 656.613892,37.500202 
z"/>
<path fill="#FFFFFF" opacity="1.000000" stroke="none" 
	d="
M312.681580,1137.332764 
	C239.551224,1080.861694 182.077133,1011.836853 140.191254,929.860535 
	C107.724068,866.317810 86.402794,799.042542 72.852531,729.144409 
	C63.207993,679.393738 56.797840,629.208557 54.958027,578.599731 
	C53.192051,530.021973 52.605305,481.387604 52.346001,432.773590 
	C52.163979,398.648010 53.399029,364.514771 54.009418,330.385101 
	C54.035599,328.921356 54.143780,327.459015 54.197235,326.341522 
	C321.217743,326.341522 587.937744,326.341522 855.396545,326.341522 
	C855.396545,337.199188 855.304016,347.324524 855.414673,357.447662 
	C855.693176,382.930908 856.300903,408.412811 856.337524,433.895905 
	C856.384644,466.702057 856.692078,499.530182 855.675659,532.311279 
	C852.815186,624.571533 842.294067,715.785767 815.996155,804.660828 
	C791.489929,887.480835 754.341858,963.864380 700.375305,1031.690308 
	C653.510071,1090.591187 597.500305,1139.157593 533.110046,1177.849609 
	C508.217957,1192.807251 481.955200,1205.480591 456.367401,1219.288208 
	C453.434387,1220.870972 451.092987,1220.644165 448.094940,1219.234619 
	C400.197601,1196.714722 354.958618,1169.822144 312.681580,1137.332764 
M316.870544,443.498505 
	C316.870544,440.417084 316.870544,437.335632 316.870544,434.254211 
	C316.364777,433.985962 315.859009,433.717712 315.353241,433.449493 
	C283.300201,487.828308 238.018250,527.580261 180.567627,555.580750 
	C183.165115,556.258606 184.362854,556.767273 185.591614,556.858643 
	C191.565613,557.302979 197.543335,557.754578 203.528152,557.985596 
	C222.059250,558.700867 240.191757,561.894775 256.170044,571.469116 
	C275.550476,583.081909 295.081451,594.814514 312.851715,608.669922 
	C356.631592,642.804932 396.602234,681.353455 436.259308,720.108154 
	C481.548920,764.367249 526.091003,809.391846 570.903687,854.138123 
	C594.488647,877.688110 617.979065,901.332947 641.460266,924.986450 
	C645.733215,929.290710 648.039062,929.626099 652.634949,925.572021 
	C654.318604,924.086792 655.556763,922.096619 657.040100,920.285522 
	C656.041565,919.006958 655.365662,918.071106 654.618958,917.195618 
	C631.598267,890.203186 608.381287,863.375488 585.579041,836.199829 
	C512.885498,749.564209 440.097321,663.005676 367.861603,575.989075 
	C336.356384,538.037231 321.910950,492.935394 316.870544,443.498505 
M724.549561,523.999634 
	C734.750916,509.118835 730.716797,493.136963 729.631958,477.383240 
	C729.009155,477.237152 728.386414,477.091064 727.763672,476.944977 
	C724.681946,481.023071 721.600159,485.101166 717.777344,490.159973 
	C718.904846,471.272614 715.310547,447.879028 709.076416,432.364594 
	C708.454285,430.816376 707.075378,429.572266 706.047668,428.187012 
	C704.639038,429.252991 702.917358,430.080292 701.885559,431.433563 
	C699.582397,434.454376 697.623352,437.737610 694.996277,441.712677 
	C689.531372,419.784271 679.103516,399.794952 680.353760,376.551025 
	C656.932068,388.223450 643.363953,407.227692 637.328125,432.223419 
	C636.783875,428.418823 636.239563,424.614227 635.594299,420.103882 
	C615.073975,427.956329 605.006653,442.610077 603.220642,463.182983 
	C591.947266,463.000793 588.919800,467.115387 592.258362,477.434174 
	C592.919739,479.478210 593.758850,481.514771 594.840210,483.365356 
	C613.667297,515.584534 639.885742,539.912048 673.415833,556.225220 
	C677.171387,558.052368 681.687561,558.757996 685.916382,559.056396 
	C690.970215,559.412964 693.674561,556.334351 693.301819,551.252075 
	C693.065125,548.025330 692.126465,544.850037 691.473511,541.502625 
	C704.109619,539.011841 715.737000,534.889648 724.549561,523.999634 
M249.076797,494.557831 
	C255.950653,487.776581 263.005432,481.167511 269.659302,474.176910 
	C282.081116,461.126434 294.037415,447.586334 302.542023,431.601257 
	C305.724396,425.619812 307.580658,418.645691 308.626709,411.904633 
	C309.480927,406.399994 305.256775,402.624176 299.641724,403.150909 
	C295.100220,403.576935 290.453918,404.826080 286.254089,406.637512 
	C259.647095,418.113190 236.798996,435.294495 215.392319,454.467499 
	C194.972137,472.756927 176.222870,492.570343 162.645493,516.672485 
	C160.139816,521.120483 157.878662,525.895325 156.599533,530.804565 
	C154.192459,540.042969 160.352539,546.623047 169.893097,545.460571 
	C172.651917,545.124390 175.424866,544.253967 178.001770,543.175476 
	C204.802734,531.959167 227.538025,514.750000 249.076797,494.557831 
M590.725037,547.782349 
	C574.735901,531.925720 560.621704,514.788391 553.406006,492.699982 
	C552.442932,495.706146 552.317017,498.477356 551.981445,501.222900 
	C550.513428,513.233459 550.546631,525.697021 547.169922,537.151550 
	C538.776001,565.625732 522.835999,590.231567 503.778809,612.747803 
	C488.193939,631.161499 472.116028,649.157837 456.022461,667.607666 
	C460.092010,672.427429 464.100616,677.174988 468.229065,682.064514 
	C509.851929,636.825623 554.151917,595.483276 603.116577,559.151062 
	C598.846191,555.214294 595.059204,551.723145 590.725037,547.782349 
M332.899384,803.383301 
	C321.919128,815.177795 310.938873,826.972290 299.546509,839.209473 
	C302.222351,842.165588 304.686920,844.888367 307.355652,847.836670 
	C347.672363,806.427002 387.460297,765.560425 427.380219,724.558289 
	C423.053864,720.498291 419.078583,716.767822 415.067902,713.004089 
	C387.693787,743.077332 360.506592,772.945251 332.899384,803.383301 
M609.670532,611.067688 
	C619.312378,607.501526 628.751770,603.153137 638.653198,600.589905 
	C648.507263,598.039001 658.825317,597.280701 669.581604,595.638428 
	C659.807739,592.268494 651.145447,589.173462 642.391602,586.363586 
	C640.821350,585.859497 638.805420,586.267151 637.110291,586.702148 
	C618.600952,591.451721 601.476990,599.277954 585.501160,609.767578 
	C556.065979,629.094666 529.228271,651.701416 502.834808,674.875977 
	C495.253448,681.532776 487.819000,688.356812 480.173553,695.233398 
	C482.522247,697.907898 484.435028,700.085999 486.431244,702.359131 
	C494.710571,694.996765 502.553955,688.054871 510.361755,681.073181 
	C540.566162,654.064331 571.743286,628.435303 609.670532,611.067688 
M254.934494,891.425964 
	C239.252487,908.179626 223.580627,924.942749 207.882263,941.681030 
	C203.067993,946.814148 203.027222,948.570923 207.839813,953.268250 
	C212.568375,957.883484 214.687012,957.810669 219.531006,953.118164 
	C237.333023,935.872925 255.309067,918.804138 272.921478,901.367798 
	C280.797729,893.570251 287.967285,885.058838 295.196350,877.156860 
	C291.160034,873.485901 285.970215,868.765930 280.602264,863.883972 
	C272.188477,872.924316 263.812256,881.924255 254.934494,891.425964 
M585.160583,525.342651 
	C591.743652,532.172485 598.164734,539.167786 604.940735,545.800537 
	C623.713989,564.177063 644.956421,578.809509 670.036987,587.253418 
	C673.858643,588.540100 678.143250,588.886780 682.211426,588.874512 
	C685.760132,588.863831 688.735474,586.351196 687.701416,582.704468 
	C685.995789,576.689392 683.219788,570.977844 680.671570,564.577209 
	C678.709167,566.256226 677.826233,566.792114 677.232666,567.553650 
	C671.672852,574.686035 664.879272,574.161438 657.626465,570.766785 
	C655.371643,569.711487 652.963135,568.822815 650.982056,567.370789 
	C638.784180,558.430359 626.306946,549.812744 614.658997,540.195862 
	C601.126465,529.022949 589.307312,516.083496 580.998413,500.410950 
	C577.337708,493.505798 574.191650,486.227386 583.304504,478.946625 
	C577.693481,477.089508 573.305786,474.831848 568.720276,474.308960 
	C561.899780,473.531219 559.524780,476.638611 560.737244,483.312317 
	C561.150085,485.584778 561.828369,487.837585 562.638855,490.004578 
	C567.553162,503.144043 575.673828,514.262512 585.160583,525.342651 
M347.711365,834.212708 
	C380.110443,803.135803 412.509491,772.058899 444.247192,741.616394 
	C442.335266,739.200439 440.615631,737.027527 438.770264,734.695740 
	C397.182220,774.564819 355.977570,814.066406 314.364807,853.959229 
	C316.891968,855.929260 319.057220,857.617188 321.371552,859.421326 
	C330.141022,851.035278 338.676453,842.873108 347.711365,834.212708 
M297.493713,870.012878 
	C311.314972,880.404175 313.948303,880.508484 323.436371,871.017700 
	C323.629486,870.824402 323.674316,870.482971 323.951477,869.821045 
	C309.813782,861.707397 297.540527,851.372925 288.789307,837.159241 
	C286.878632,838.910034 285.530243,840.136353 284.191895,841.373535 
	C278.887024,846.277344 278.205017,848.262756 282.504028,853.915649 
	C286.780945,859.539490 292.083252,864.383606 297.493713,870.012878 
M678.085571,949.553772 
	C679.213135,947.913757 680.493103,946.356995 681.442505,944.619690 
	C686.104614,936.088440 684.860535,933.177673 675.537903,930.492615 
	C672.479736,940.934631 665.741394,947.526855 655.012878,949.735657 
	C657.774475,959.128601 660.139465,960.574158 667.854980,956.852600 
	C671.371887,955.156250 674.359375,952.362061 678.085571,949.553772 
M660.222351,939.826355 
	C662.326660,937.730957 664.760681,935.872437 666.469971,933.493286 
	C670.645569,927.681213 669.903137,925.383118 663.777954,922.474487 
	C661.574158,925.432861 659.792603,928.749573 657.154785,931.109131 
	C654.433533,933.543335 650.879089,935.046143 647.714294,936.941467 
	C650.663879,943.756775 651.880066,944.071472 660.222351,939.826355 
z"/>
<path fill="#FEFEFF" opacity="1.000000" stroke="none" 
	d="
M498.409546,10.528231 
	C538.602783,14.389732 562.149414,38.021320 574.819946,73.917252 
	C582.903870,96.819191 583.180786,120.340149 574.929504,143.388107 
	C558.259155,189.952454 511.727417,202.463242 473.629150,184.495422 
	C444.807831,170.902771 429.594910,146.339859 423.072601,116.100670 
	C417.994324,92.556343 419.649841,69.473320 430.960114,47.654541 
	C443.958435,22.579361 470.152527,8.029416 498.409546,10.528231 
z"/>
<path fill="#FEFEFF" opacity="1.000000" stroke="none" 
	d="
M656.613831,37.000366 
	C656.698547,31.004963 656.716614,25.507278 656.890930,20.014559 
	C657.013184,16.165058 659.139160,13.444964 662.901306,13.189800 
	C679.282043,12.078794 695.337402,13.008604 708.945435,23.800417 
	C724.664062,36.266041 727.768860,65.763855 715.147827,81.391426 
	C708.666077,89.417290 699.815002,93.119133 689.890198,93.808746 
	C681.268372,94.407814 672.564453,94.194565 663.913330,93.882210 
	C657.404175,93.647179 656.618225,92.464531 656.615845,85.996704 
	C656.609863,69.831207 656.613892,53.665703 656.613831,37.000366 
z"/>
<path fill="#053ED2" opacity="1.000000" stroke="none" 
	d="
M316.870758,443.974792 
	C321.910950,492.935394 336.356384,538.037231 367.861603,575.989075 
	C440.097321,663.005676 512.885498,749.564209 585.579041,836.199829 
	C608.381287,863.375488 631.598267,890.203186 654.618958,917.195618 
	C655.365662,918.071106 656.041565,919.006958 657.040100,920.285522 
	C655.556763,922.096619 654.318604,924.086792 652.634949,925.572021 
	C648.039062,929.626099 645.733215,929.290710 641.460266,924.986450 
	C617.979065,901.332947 594.488647,877.688110 570.903687,854.138123 
	C526.091003,809.391846 481.548920,764.367249 436.259308,720.108154 
	C396.602234,681.353455 356.631592,642.804932 312.851715,608.669922 
	C295.081451,594.814514 275.550476,583.081909 256.170044,571.469116 
	C240.191757,561.894775 222.059250,558.700867 203.528152,557.985596 
	C197.543335,557.754578 191.565613,557.302979 185.591614,556.858643 
	C184.362854,556.767273 183.165115,556.258606 180.567627,555.580750 
	C238.018250,527.580261 283.300201,487.828308 315.353241,433.449493 
	C315.859009,433.717712 316.364777,433.985962 316.870544,434.254211 
	C316.870544,437.335632 316.870544,440.417084 316.870758,443.974792 
M619.924561,888.577698 
	C544.690063,806.234558 469.717896,723.649292 394.073242,641.684631 
	C368.907135,614.415833 342.282623,588.467834 315.807709,562.442017 
	C301.216522,548.098267 284.209259,536.977722 264.554260,530.491150 
	C261.145752,529.366272 256.777771,527.422241 254.060715,528.612793 
	C245.161224,532.512390 236.469467,537.159424 228.385529,542.550354 
	C223.027054,546.123779 223.858856,549.008240 230.226425,550.641907 
	C256.821198,557.465332 279.855774,571.139465 301.704926,587.189636 
	C345.041199,619.023926 384.154297,655.694336 422.362061,693.326538 
	C449.533386,720.088623 475.983185,747.584717 502.681763,774.824951 
	C524.365234,796.948364 545.913330,819.204529 567.570129,841.354187 
	C589.809937,864.099976 612.098572,886.798218 634.410522,909.473267 
	C635.614990,910.697388 637.232727,911.515015 638.658142,912.521851 
	C639.057007,911.999512 639.455933,911.477173 639.854858,910.954834 
	C633.360901,903.678955 626.867004,896.403015 619.924561,888.577698 
z"/>
<path fill="#063FD2" opacity="1.000000" stroke="none" 
	d="
M724.321167,524.277344 
	C715.737000,534.889648 704.109619,539.011841 691.473511,541.502625 
	C692.126465,544.850037 693.065125,548.025330 693.301819,551.252075 
	C693.674561,556.334351 690.970215,559.412964 685.916382,559.056396 
	C681.687561,558.757996 677.171387,558.052368 673.415833,556.225220 
	C639.885742,539.912048 613.667297,515.584534 594.840210,483.365356 
	C593.758850,481.514771 592.919739,479.478210 592.258362,477.434174 
	C588.919800,467.115387 591.947266,463.000793 603.220642,463.182983 
	C605.006653,442.610077 615.073975,427.956329 635.594299,420.103882 
	C636.239563,424.614227 636.783875,428.418823 637.328125,432.223419 
	C643.363953,407.227692 656.932068,388.223450 680.353760,376.551025 
	C679.103516,399.794952 689.531372,419.784271 694.996277,441.712677 
	C697.623352,437.737610 699.582397,434.454376 701.885559,431.433563 
	C702.917358,430.080292 704.639038,429.252991 706.047668,428.187012 
	C707.075378,429.572266 708.454285,430.816376 709.076416,432.364594 
	C715.310547,447.879028 718.904846,471.272614 717.777344,490.159973 
	C721.600159,485.101166 724.681946,481.023071 727.763672,476.944977 
	C728.386414,477.091064 729.009155,477.237152 729.631958,477.383240 
	C730.716797,493.136963 734.750916,509.118835 724.321167,524.277344 
M678.453979,488.962341 
	C664.494995,501.569580 646.009521,510.053314 638.646301,506.928284 
	C639.694702,506.173950 640.589539,505.534332 641.480042,504.888763 
	C650.459045,498.380005 659.911804,492.424469 668.309265,485.236298 
	C682.378479,473.193207 687.671692,457.701080 683.043274,439.452423 
	C679.299011,424.689728 675.192139,410.019043 671.195740,395.119934 
	C670.255127,395.808685 668.955933,396.536713 667.932373,397.544586 
	C659.209229,406.133881 651.838806,415.742737 646.568542,426.835419 
	C640.124817,440.397766 638.567871,454.173248 645.165222,468.222626 
	C645.935486,469.862885 646.508911,471.641541 646.874878,473.417603 
	C648.353149,480.590942 642.092896,489.373871 634.569031,489.972809 
	C641.387695,481.400574 639.737183,473.102356 634.655151,464.779968 
	C629.176453,455.807922 628.052551,446.102539 630.244629,435.918915 
	C630.499146,434.736786 630.637207,433.529633 630.871521,432.071259 
	C614.608032,439.744415 607.107727,456.564697 613.570618,473.707550 
	C623.705078,500.589355 642.430237,519.762939 669.515747,529.835571 
	C684.828186,535.530029 706.361572,528.201233 715.703491,515.242615 
	C719.218079,510.367401 720.367798,505.014801 719.268005,499.401031 
	C712.257996,504.788971 706.031982,510.728668 698.771179,514.841187 
	C690.999756,519.242798 682.327576,519.316223 673.079834,514.182861 
	C675.765259,513.671448 677.354065,513.286621 678.965637,513.074707 
	C694.135620,511.079742 705.250916,500.962555 707.193481,485.855530 
	C708.132446,478.552917 707.477600,470.917450 706.593872,463.546661 
	C705.809204,457.002502 703.710754,450.615875 702.192200,444.159729 
	C701.715942,444.136383 701.239746,444.113068 700.763550,444.089752 
	C696.822205,460.571991 692.593811,476.908478 678.453979,488.962341 
z"/>
<path fill="#043DD2" opacity="1.000000" stroke="none" 
	d="
M248.825653,494.809814 
	C227.538025,514.750000 204.802734,531.959167 178.001770,543.175476 
	C175.424866,544.253967 172.651917,545.124390 169.893097,545.460571 
	C160.352539,546.623047 154.192459,540.042969 156.599533,530.804565 
	C157.878662,525.895325 160.139816,521.120483 162.645493,516.672485 
	C176.222870,492.570343 194.972137,472.756927 215.392319,454.467499 
	C236.798996,435.294495 259.647095,418.113190 286.254089,406.637512 
	C290.453918,404.826080 295.100220,403.576935 299.641724,403.150909 
	C305.256775,402.624176 309.480927,406.399994 308.626709,411.904633 
	C307.580658,418.645691 305.724396,425.619812 302.542023,431.601257 
	C294.037415,447.586334 282.081116,461.126434 269.659302,474.176910 
	C263.005432,481.167511 255.950653,487.776581 248.825653,494.809814 
M239.560272,451.070251 
	C239.799133,454.399139 239.323776,457.985687 240.413971,461.007446 
	C243.397797,469.277832 244.330261,477.411926 241.333420,485.826233 
	C241.010513,486.732819 241.199493,487.821716 241.111008,489.655731 
	C242.722305,488.424194 243.721008,487.862274 244.464005,487.062744 
	C255.093903,475.623566 266.289307,464.638245 276.096069,452.529297 
	C283.446472,443.453369 289.164001,433.019775 295.178711,422.934326 
	C296.110626,421.371674 295.462433,417.811249 294.193970,416.337250 
	C293.238831,415.227386 289.697876,415.162994 288.035919,416.029449 
	C275.707001,422.457092 263.511078,429.146240 251.378067,435.940247 
	C245.659973,439.142120 241.835632,444.080505 239.560272,451.070251 
z"/>
<path fill="#033DD1" opacity="1.000000" stroke="none" 
	d="
M590.998657,548.007202 
	C595.059204,551.723145 598.846191,555.214294 603.116577,559.151062 
	C554.151917,595.483276 509.851929,636.825623 468.229065,682.064514 
	C464.100616,677.174988 460.092010,672.427429 456.022461,667.607666 
	C472.116028,649.157837 488.193939,631.161499 503.778809,612.747803 
	C522.835999,590.231567 538.776001,565.625732 547.169922,537.151550 
	C550.546631,525.697021 550.513428,513.233459 551.981445,501.222900 
	C552.317017,498.477356 552.442932,495.706146 553.406006,492.699982 
	C560.621704,514.788391 574.735901,531.925720 590.998657,548.007202 
z"/>
<path fill="#053ED2" opacity="1.000000" stroke="none" 
	d="
M333.109406,803.098206 
	C360.506592,772.945251 387.693787,743.077332 415.067902,713.004089 
	C419.078583,716.767822 423.053864,720.498291 427.380219,724.558289 
	C387.460297,765.560425 347.672363,806.427002 307.355652,847.836670 
	C304.686920,844.888367 302.222351,842.165588 299.546509,839.209473 
	C310.938873,826.972290 321.919128,815.177795 333.109406,803.098206 
z"/>
<path fill="#0740D2" opacity="1.000000" stroke="none" 
	d="
M609.328003,611.228027 
	C571.743286,628.435303 540.566162,654.064331 510.361755,681.073181 
	C502.553955,688.054871 494.710571,694.996765 486.431244,702.359131 
	C484.435028,700.085999 482.522247,697.907898 480.173553,695.233398 
	C487.819000,688.356812 495.253448,681.532776 502.834808,674.875977 
	C529.228271,651.701416 556.065979,629.094666 585.501160,609.767578 
	C601.476990,599.277954 618.600952,591.451721 637.110291,586.702148 
	C638.805420,586.267151 640.821350,585.859497 642.391602,586.363586 
	C651.145447,589.173462 659.807739,592.268494 669.581604,595.638428 
	C658.825317,597.280701 648.507263,598.039001 638.653198,600.589905 
	C628.751770,603.153137 619.312378,607.501526 609.328003,611.228027 
z"/>
<path fill="#043ED2" opacity="1.000000" stroke="none" 
	d="
M255.185272,891.175110 
	C263.812256,881.924255 272.188477,872.924316 280.602264,863.883972 
	C285.970215,868.765930 291.160034,873.485901 295.196350,877.156860 
	C287.967285,885.058838 280.797729,893.570251 272.921478,901.367798 
	C255.309067,918.804138 237.333023,935.872925 219.531006,953.118164 
	C214.687012,957.810669 212.568375,957.883484 207.839813,953.268250 
	C203.027222,948.570923 203.067993,946.814148 207.882263,941.681030 
	C223.580627,924.942749 239.252487,908.179626 255.185272,891.175110 
z"/>
<path fill="#073FD2" opacity="1.000000" stroke="none" 
	d="
M584.947510,525.059570 
	C575.673828,514.262512 567.553162,503.144043 562.638855,490.004578 
	C561.828369,487.837585 561.150085,485.584778 560.737244,483.312317 
	C559.524780,476.638611 561.899780,473.531219 568.720276,474.308960 
	C573.305786,474.831848 577.693481,477.089508 583.304504,478.946625 
	C574.191650,486.227386 577.337708,493.505798 580.998413,500.410950 
	C589.307312,516.083496 601.126465,529.022949 614.658997,540.195862 
	C626.306946,549.812744 638.784180,558.430359 650.982056,567.370789 
	C652.963135,568.822815 655.371643,569.711487 657.626465,570.766785 
	C664.879272,574.161438 671.672852,574.686035 677.232666,567.553650 
	C677.826233,566.792114 678.709167,566.256226 680.671570,564.577209 
	C683.219788,570.977844 685.995789,576.689392 687.701416,582.704468 
	C688.735474,586.351196 685.760132,588.863831 682.211426,588.874512 
	C678.143250,588.886780 673.858643,588.540100 670.036987,587.253418 
	C644.956421,578.809509 623.713989,564.177063 604.940735,545.800537 
	C598.164734,539.167786 591.743652,532.172485 584.947510,525.059570 
z"/>
<path fill="#0740D2" opacity="1.000000" stroke="none" 
	d="
M347.461609,834.461792 
	C338.676453,842.873108 330.141022,851.035278 321.371552,859.421326 
	C319.057220,857.617188 316.891968,855.929260 314.364807,853.959229 
	C355.977570,814.066406 397.182220,774.564819 438.770264,734.695740 
	C440.615631,737.027527 442.335266,739.200439 444.247192,741.616394 
	C412.509491,772.058899 380.110443,803.135803 347.461609,834.461792 
z"/>
<path fill="#063FD2" opacity="1.000000" stroke="none" 
	d="
M297.214844,869.791260 
	C292.083252,864.383606 286.780945,859.539490 282.504028,853.915649 
	C278.205017,848.262756 278.887024,846.277344 284.191895,841.373535 
	C285.530243,840.136353 286.878632,838.910034 288.789307,837.159241 
	C297.540527,851.372925 309.813782,861.707397 323.951477,869.821045 
	C323.674316,870.482971 323.629486,870.824402 323.436371,871.017700 
	C313.948303,880.508484 311.314972,880.404175 297.214844,869.791260 
z"/>
<path fill="#0941D3" opacity="1.000000" stroke="none" 
	d="
M677.836304,949.809814 
	C674.359375,952.362061 671.371887,955.156250 667.854980,956.852600 
	C660.139465,960.574158 657.774475,959.128601 655.012878,949.735657 
	C665.741394,947.526855 672.479736,940.934631 675.540222,930.495056 
	C684.860535,933.177673 686.104614,936.088440 681.442505,944.619690 
	C680.493103,946.356995 679.213135,947.913757 677.836304,949.809814 
z"/>
<path fill="#0B43D3" opacity="1.000000" stroke="none" 
	d="
M659.895020,939.989014 
	C651.880066,944.071472 650.663879,943.756775 647.714294,936.941467 
	C650.879089,935.046143 654.433533,933.543335 657.154785,931.109131 
	C659.792603,928.749573 661.574158,925.432861 663.777954,922.474487 
	C669.903137,925.383118 670.645569,927.681213 666.469971,933.493286 
	C664.760681,935.872437 662.326660,937.730957 659.895020,939.989014 
z"/>
<path fill="#FBFCFE" opacity="1.000000" stroke="none" 
	d="
M620.148804,888.852417 
	C626.867004,896.403015 633.360901,903.678955 639.854858,910.954834 
	C639.455933,911.477173 639.057007,911.999512 638.658142,912.521851 
	C637.232727,911.515015 635.614990,910.697388 634.410522,909.473267 
	C612.098572,886.798218 589.809937,864.099976 567.570129,841.354187 
	C545.913330,819.204529 524.365234,796.948364 502.681763,774.824951 
	C475.983185,747.584717 449.533386,720.088623 422.362061,693.326538 
	C384.154297,655.694336 345.041199,619.023926 301.704926,587.189636 
	C279.855774,571.139465 256.821198,557.465332 230.226425,550.641907 
	C223.858856,549.008240 223.027054,546.123779 228.385529,542.550354 
	C236.469467,537.159424 245.161224,532.512390 254.060715,528.612793 
	C256.777771,527.422241 261.145752,529.366272 264.554260,530.491150 
	C284.209259,536.977722 301.216522,548.098267 315.807709,562.442017 
	C342.282623,588.467834 368.907135,614.415833 394.073242,641.684631 
	C469.717896,723.649292 544.690063,806.234558 620.148804,888.852417 
z"/>
<path fill="#FCFDFE" opacity="1.000000" stroke="none" 
	d="
M678.706177,488.715454 
	C692.593811,476.908478 696.822205,460.571991 700.763550,444.089752 
	C701.239746,444.113068 701.715942,444.136383 702.192200,444.159729 
	C703.710754,450.615875 705.809204,457.002502 706.593872,463.546661 
	C707.477600,470.917450 708.132446,478.552917 707.193481,485.855530 
	C705.250916,500.962555 694.135620,511.079742 678.965637,513.074707 
	C677.354065,513.286621 675.765259,513.671448 673.079834,514.182861 
	C682.327576,519.316223 690.999756,519.242798 698.771179,514.841187 
	C706.031982,510.728668 712.257996,504.788971 719.268005,499.401031 
	C720.367798,505.014801 719.218079,510.367401 715.703491,515.242615 
	C706.361572,528.201233 684.828186,535.530029 669.515747,529.835571 
	C642.430237,519.762939 623.705078,500.589355 613.570618,473.707550 
	C607.107727,456.564697 614.608032,439.744415 630.871521,432.071259 
	C630.637207,433.529633 630.499146,434.736786 630.244629,435.918915 
	C628.052551,446.102539 629.176453,455.807922 634.655151,464.779968 
	C639.737183,473.102356 641.387695,481.400574 634.569031,489.972809 
	C642.092896,489.373871 648.353149,480.590942 646.874878,473.417603 
	C646.508911,471.641541 645.935486,469.862885 645.165222,468.222626 
	C638.567871,454.173248 640.124817,440.397766 646.568542,426.835419 
	C651.838806,415.742737 659.209229,406.133881 667.932373,397.544586 
	C668.955933,396.536713 670.255127,395.808685 671.195740,395.119934 
	C675.192139,410.019043 679.299011,424.689728 683.043274,439.452423 
	C687.671692,457.701080 682.378479,473.193207 668.309265,485.236298 
	C659.911804,492.424469 650.459045,498.380005 641.480042,504.888763 
	C640.589539,505.534332 639.694702,506.173950 638.646301,506.928284 
	C646.009521,510.053314 664.494995,501.569580 678.706177,488.715454 
z"/>
<path fill="#FCFDFE" opacity="1.000000" stroke="none" 
	d="
M239.697800,450.719177 
	C241.835632,444.080505 245.659973,439.142120 251.378067,435.940247 
	C263.511078,429.146240 275.707001,422.457092 288.035919,416.029449 
	C289.697876,415.162994 293.238831,415.227386 294.193970,416.337250 
	C295.462433,417.811249 296.110626,421.371674 295.178711,422.934326 
	C289.164001,433.019775 283.446472,443.453369 276.096069,452.529297 
	C266.289307,464.638245 255.093903,475.623566 244.464005,487.062744 
	C243.721008,487.862274 242.722305,488.424194 241.111008,489.655731 
	C241.199493,487.821716 241.010513,486.732819 241.333420,485.826233 
	C244.330261,477.411926 243.397797,469.277832 240.413971,461.007446 
	C239.323776,457.985687 239.799133,454.399139 239.697800,450.719177 
z"/>
</svg>