<svg version="1.1" id="Layer_1" xmlns="http://www.w3.org/2000/svg" xmlns:xlink="http://www.w3.org/1999/xlink" x="0px" y="0px"
	 width="100%" viewBox="0 0 124 126" enable-background="new 0 0 124 126" xml:space="preserve">
<path fill="#FF6503" opacity="1.000000" stroke="none" 
	d="
M1.000000,126.000000 
	C1.000000,84.382118 1.000000,42.764240 1.000000,1.073180 
	C42.236042,1.073180 83.472244,1.073180 125.000000,1.073180 
	C125.000000,42.353771 125.000000,83.708229 124.531342,125.533508 
	C83.041794,126.002884 42.020897,126.001442 1.000000,126.000000 
M89.981483,22.517487 
	C89.981483,33.613228 89.981483,44.708969 89.981483,55.771454 
	C98.435356,55.771454 106.309135,55.771454 113.956207,55.771454 
	C113.956207,52.486225 113.956207,49.595215 113.956207,46.206856 
	C109.605637,46.206856 105.694077,46.206856 101.234680,46.206856 
	C101.234680,34.464291 101.234680,23.236420 101.234680,11.894939 
	C97.253639,11.894939 93.845924,11.894939 89.981483,11.894939 
	C89.981483,15.275223 89.981483,18.400356 89.981483,22.517487 
M62.907131,39.460358 
	C69.120224,37.417240 64.888527,32.780228 66.118568,29.229897 
	C63.675858,29.072912 61.911922,28.959549 59.792717,28.823355 
	C59.792717,23.060062 59.792717,17.630068 59.792717,12.016060 
	C55.700733,12.016060 52.015541,12.016060 48.367493,12.016060 
	C48.367493,26.845615 48.367493,41.263660 48.367493,55.883640 
	C52.189419,55.883640 55.748047,55.883640 59.803226,55.883640 
	C59.803226,51.483860 59.636189,47.350891 59.908615,43.247093 
	C59.986748,42.070110 61.335087,40.977451 62.907131,39.460358 
M23.121481,37.499504 
	C23.121481,28.947369 23.121481,20.395235 23.121481,11.956375 
	C18.876131,11.956375 15.456928,11.956375 11.944685,11.956375 
	C11.944685,26.778790 11.944685,41.279560 11.944685,55.776985 
	C15.835110,55.776985 19.370438,55.776985 23.121483,55.776985 
	C23.121483,49.766232 23.121483,44.132599 23.121481,37.499504 
M69.908630,55.337868 
	C73.537384,55.672745 77.166138,56.007622 80.818115,56.344643 
	C80.818115,40.962143 80.818115,26.536800 80.818115,12.049966 
	C77.028709,12.049966 73.508331,12.049966 69.760246,12.049966 
	C69.760246,26.429087 69.760246,40.399826 69.908630,55.337868 
M25.737068,11.968868 
	C25.445589,14.873187 25.154110,17.777506 24.881588,20.492943 
	C29.844177,23.008579 31.955135,28.090021 28.774403,29.852932 
	C23.489594,32.782032 25.399700,36.745926 25.284580,40.884514 
	C30.205490,41.454350 34.697426,41.311840 37.829952,37.361134 
	C42.420010,31.572212 42.172993,24.900206 39.702892,18.498259 
	C37.493320,12.771549 32.402084,11.229386 25.737068,11.968868 
M103.239235,14.803287 
	C103.239235,16.879435 103.239235,18.955584 103.239235,21.156212 
	C107.292557,21.156212 110.666939,21.156212 113.993889,21.156212 
	C113.993889,17.800671 113.993889,14.789255 113.993889,11.614848 
	C111.086571,11.614848 108.580070,11.387437 106.150536,11.720847 
	C105.100868,11.864896 104.210228,13.167673 103.239235,14.803287 
M114.457985,35.238693 
	C114.457985,33.296394 114.457985,31.354095 114.457985,29.275352 
	C110.512589,29.275352 107.126526,29.275352 103.569191,29.275352 
	C103.569191,32.907234 103.569191,36.269707 103.569191,40.264175 
	C106.056839,39.777252 108.072800,39.318714 110.110825,39.002224 
	C112.041145,38.702457 114.778625,39.731983 114.457985,35.238693 
z"/>
<path fill="#FF7628" opacity="1.000000" stroke="none" 
	d="
M1.000000,126.500000 
	C42.020897,126.001442 83.041794,126.002884 124.531342,126.002167 
	C123.673309,126.333336 122.346985,126.956215 121.019867,126.957932 
	C81.013298,127.009605 41.006641,127.000000 1.000000,126.500000 
z"/>
<path fill="#FFFEFD" opacity="1.000000" stroke="none" 
	d="
M89.981483,22.021488 
	C89.981483,18.400356 89.981483,15.275223 89.981483,11.894939 
	C93.845924,11.894939 97.253639,11.894939 101.234680,11.894939 
	C101.234680,23.236420 101.234680,34.464291 101.234680,46.206856 
	C105.694077,46.206856 109.605637,46.206856 113.956207,46.206856 
	C113.956207,49.595215 113.956207,52.486225 113.956207,55.771454 
	C106.309135,55.771454 98.435356,55.771454 89.981483,55.771454 
	C89.981483,44.708969 89.981483,33.613228 89.981483,22.021488 
z"/>
<path fill="#FFF9F6" opacity="1.000000" stroke="none" 
	d="
M62.504074,39.653244 
	C61.335087,40.977451 59.986748,42.070110 59.908615,43.247093 
	C59.636189,47.350891 59.803226,51.483860 59.803226,55.883640 
	C55.748047,55.883640 52.189419,55.883640 48.367493,55.883640 
	C48.367493,41.263660 48.367493,26.845615 48.367493,12.016060 
	C52.015541,12.016060 55.700733,12.016060 59.792717,12.016060 
	C59.792717,17.630068 59.792717,23.060062 59.792717,28.823355 
	C61.911922,28.959549 63.675858,29.072912 66.118568,29.229897 
	C64.888527,32.780228 69.120224,37.417240 62.504074,39.653244 
z"/>
<path fill="#FFFEFE" opacity="1.000000" stroke="none" 
	d="
M23.121483,37.999233 
	C23.121483,44.132599 23.121483,49.766232 23.121483,55.776985 
	C19.370438,55.776985 15.835110,55.776985 11.944685,55.776985 
	C11.944685,41.279560 11.944685,26.778790 11.944685,11.956375 
	C15.456928,11.956375 18.876131,11.956375 23.121481,11.956375 
	C23.121481,20.395235 23.121481,28.947369 23.121483,37.999233 
z"/>
<path fill="#FFFFFF" opacity="1.000000" stroke="none" 
	d="
M69.834442,54.854218 
	C69.760246,40.399826 69.760246,26.429087 69.760246,12.049966 
	C73.508331,12.049966 77.028709,12.049966 80.818115,12.049966 
	C80.818115,26.536800 80.818115,40.962143 80.818115,56.344643 
	C77.166138,56.007622 73.537384,55.672745 69.834442,54.854218 
z"/>
<path fill="#FFFAF8" opacity="1.000000" stroke="none" 
	d="
M26.172928,11.831120 
	C32.402084,11.229386 37.493320,12.771549 39.702892,18.498259 
	C42.172993,24.900206 42.420010,31.572212 37.829952,37.361134 
	C34.697426,41.311840 30.205490,41.454350 25.284580,40.884514 
	C25.399700,36.745926 23.489594,32.782032 28.774403,29.852932 
	C31.955135,28.090021 29.844177,23.008579 24.881588,20.492943 
	C25.154110,17.777506 25.445589,14.873187 26.172928,11.831120 
z"/>
<path fill="#FFFAF8" opacity="1.000000" stroke="none" 
	d="
M103.243286,14.373686 
	C104.210228,13.167673 105.100868,11.864896 106.150536,11.720847 
	C108.580070,11.387437 111.086571,11.614848 113.993889,11.614848 
	C113.993889,14.789255 113.993889,17.800671 113.993889,21.156212 
	C110.666939,21.156212 107.292557,21.156212 103.239235,21.156212 
	C103.239235,18.955584 103.239235,16.879435 103.243286,14.373686 
z"/>
<path fill="#FFF4EF" opacity="1.000000" stroke="none" 
	d="
M114.455109,35.668701 
	C114.778625,39.731983 112.041145,38.702457 110.110825,39.002224 
	C108.072800,39.318714 106.056839,39.777252 103.569191,40.264175 
	C103.569191,36.269707 103.569191,32.907234 103.569191,29.275352 
	C107.126526,29.275352 110.512589,29.275352 114.457985,29.275352 
	C114.457985,31.354095 114.457985,33.296394 114.455109,35.668701 
z"/>
</svg>